<svg xmlns="http://www.w3.org/2000/svg" width="36.359" height="36.359" viewBox="0 0 36.359 36.359">
  <g id="グループ_412" data-name="グループ 412" transform="translate(-24 -478.641)">
    <circle id="楕円形_3" data-name="楕円形 3" cx="18.18" cy="18.18" r="18.18" transform="translate(24 478.641)" fill="#e8c2b1"/>
    <path id="パス_61" data-name="パス 61" d="M109.629,43.422c.091.057.178.115.268.167A5.376,5.376,0,0,1,112.73,49.6c-.5,2.949-2.594,4.726-5.759,4.9a6.909,6.909,0,0,1-4.716-1.146c-.2-.146-.338-.041-.51.019a2.99,2.99,0,0,1-2.632-.228,1.423,1.423,0,0,1-.722-1.767,1.5,1.5,0,0,1,1.819-.813,2.892,2.892,0,0,1,1.218.646c.267.229.391.152.481-.146a4.66,4.66,0,0,0,.065-1.977,30.682,30.682,0,0,1-.327-6.33,16.6,16.6,0,0,1,.88-4.326c.216.355.41.631.56.931.142.284.281.343.564.161a3.649,3.649,0,0,1,1.033-.52c-.186.581-.364,1.1-.521,1.627a18.6,18.6,0,0,0-.438,7.4A10.229,10.229,0,0,1,103.7,50.8a3.076,3.076,0,0,1-.585,1.445c-.147.186-.144.306.03.463a4.389,4.389,0,0,0,4.047,1.215,2.877,2.877,0,0,0,2.043-1.671A9.684,9.684,0,0,0,110,47.77a6.669,6.669,0,0,0-.9-3.408c-.227-.373-.454-.582-.963-.423a3.568,3.568,0,0,1-1.969.007c-.516-.134-.737-.41-.71-.83a.869.869,0,0,1,.852-.767,3.2,3.2,0,0,1,1.8.334.483.483,0,0,0,.7-.184,3.281,3.281,0,0,0,.625-1.431,8.062,8.062,0,0,0-.089-3.54,3.659,3.659,0,0,0-4.785-2.718,6.791,6.791,0,0,0-3.7,2.862c-.158.225-.313.454-.506.734a3.682,3.682,0,0,1-.181-1.072c-.018-.34-.118-.547-.5-.577a5.207,5.207,0,0,1-.8-.193,3.106,3.106,0,0,1,.848-.745,9.485,9.485,0,0,1,8.406-1.522,5.251,5.251,0,0,1,3.646,6.26,3.979,3.979,0,0,1-1.72,2.546C109.9,43.2,109.727,43.242,109.629,43.422Zm-9.67,9.268a1.544,1.544,0,0,0,.742-.218c.092-.057.214-.114.081-.235a2.434,2.434,0,0,0-1.56-.8.434.434,0,0,0-.384.726A1.319,1.319,0,0,0,99.959,52.69Z" transform="translate(-63.387 452.616)" fill="#fefbfc"/>
  </g>
</svg>
