<svg xmlns="http://www.w3.org/2000/svg" width="36.359" height="36.359" viewBox="0 0 36.359 36.359">
  <g id="グループ_409" data-name="グループ 409" transform="translate(-24 -525)">
    <circle id="楕円形_2" data-name="楕円形 2" cx="18.18" cy="18.18" r="18.18" transform="translate(24 525)" fill="#e8c2b1"/>
    <g id="グループ_407" data-name="グループ 407" transform="translate(-52.771 463.727)">
      <path id="パス_54" data-name="パス 54" d="M99.7,68.1H90.205a6.416,6.416,0,0,0-6.416,6.416v9.871A6.416,6.416,0,0,0,90.205,90.8H99.7a6.416,6.416,0,0,0,6.416-6.416V74.517A6.416,6.416,0,0,0,99.7,68.1ZM86.067,74.517a4.142,4.142,0,0,1,4.138-4.138H99.7a4.143,4.143,0,0,1,4.138,4.138v9.871A4.143,4.143,0,0,1,99.7,88.526H90.205a4.143,4.143,0,0,1-4.138-4.138Z" fill="#fff"/>
      <path id="パス_55" data-name="パス 55" d="M95.272,85.632a5.847,5.847,0,1,0-5.847-5.847A5.853,5.853,0,0,0,95.272,85.632Zm0-9.871a4.024,4.024,0,1,1-4.024,4.024A4.028,4.028,0,0,1,95.272,75.761Z" transform="translate(-0.321 -0.332)" fill="#fff"/>
      <circle id="楕円形_3" data-name="楕円形 3" cx="1.31" cy="1.31" r="1.31" transform="translate(99.658 72.126)" fill="#fff"/>
    </g>
  </g>
</svg>
