<svg xmlns="http://www.w3.org/2000/svg" width="36.359" height="36.359" viewBox="0 0 36.359 36.359">
  <g id="グループ_1034" data-name="グループ 1034" transform="translate(-24 -571)">
    <circle id="楕円形_3" data-name="楕円形 3" cx="18.18" cy="18.18" r="18.18" transform="translate(24 571)" fill="#e8c2b1"/>
    <g id="グループ_408" data-name="グループ 408" transform="translate(-13.223 510.014)">
      <path id="パス_56" data-name="パス 56" d="M55.579,70.042a10.927,10.927,0,0,1,7.866,3.188,6.988,6.988,0,0,1,.485,9.66,19.332,19.332,0,0,1-3.982,3.628c-1.147.817-2.34,1.57-3.52,2.338a4.678,4.678,0,0,1-.954.5c-.263.1-.649.2-.825.08-.157-.109-.136-.525-.131-.8a7.744,7.744,0,0,1,.135-.832c.1-.759-.121-1.073-.871-1.231-.474-.1-.956-.169-1.426-.285a10.532,10.532,0,0,1-4.44-2.251,7.227,7.227,0,0,1,.037-11.373A11.41,11.41,0,0,1,55.579,70.042Zm1.784,8.8-.127.037c-.1-.133-.21-.264-.31-.4-.514-.692-1.029-1.382-1.538-2.076-.26-.354-.629-.249-.944-.177-.1.022-.182.352-.185.543-.016,1.221.006,2.443-.016,3.664-.007.408.116.549.533.545s.567-.12.548-.538c-.026-.61-.009-1.222,0-1.832a3.681,3.681,0,0,1,.059-.42c.154.193.253.311.344.434.523.7,1.048,1.406,1.563,2.115.26.358.629.242.945.186.1-.017.187-.352.189-.543.017-1.19,0-2.38.014-3.57,0-.384,0-.653-.527-.65-.494,0-.565.218-.551.628C57.38,77.474,57.363,78.159,57.363,78.843Zm1.815-.292h0c0,.673,0,1.346,0,2.018,0,.268.1.4.386.4.813-.008,1.627-.011,2.44,0,.423.006.372-.277.377-.544s.021-.544-.393-.528c-.468.018-.938-.009-1.407.007-.309.011-.36-.145-.358-.4s.039-.421.353-.409c.453.017.908-.014,1.36.008.364.018.465-.143.448-.476-.015-.3.047-.616-.426-.6s-.939-.007-1.408.006c-.292.008-.328-.154-.325-.387s.007-.437.336-.425c.453.015.909-.019,1.361.008.4.024.466-.165.466-.507s-.05-.565-.478-.551c-.75.025-1.5.02-2.252,0-.375-.009-.494.147-.484.5C59.191,77.3,59.178,77.926,59.178,78.551Zm-10.594.041c0,.657.005,1.315,0,1.972,0,.266.079.409.373.406.814-.009,1.628-.012,2.441,0,.428.006.364-.284.37-.547.008-.28.023-.544-.392-.525-.437.019-.877-.016-1.314.01-.355.02-.459-.116-.453-.46.018-.954-.008-1.909.012-2.864.008-.4-.225-.412-.513-.408s-.538-.016-.526.4C48.6,77.246,48.584,77.919,48.584,78.592Zm3.869.008c0,.658.015,1.315,0,1.972-.013.412.24.4.521.4s.522,0,.517-.4q-.024-2,0-3.99c.005-.408-.242-.4-.524-.4s-.528,0-.514.406C52.47,77.254,52.453,77.928,52.453,78.6Z" fill="#fff"/>
      <path id="パス_57" data-name="パス 57" d="M57.363,78.843c0-.684.017-1.369-.007-2.053-.014-.41.057-.626.551-.628.522,0,.531.266.527.65-.014,1.19,0,2.38-.014,3.57,0,.191-.094.526-.189.543-.316.056-.685.172-.945-.186-.515-.709-1.04-1.411-1.563-2.115-.091-.123-.19-.241-.344-.434a3.681,3.681,0,0,0-.059.42c-.005.61-.022,1.222,0,1.832.019.418-.146.534-.548.538s-.54-.137-.533-.545c.022-1.221,0-2.443.016-3.664,0-.191.085-.521.185-.543.315-.072.684-.177.944.177.509.694,1.024,1.384,1.538,2.076.1.135.206.266.31.4Z" fill="#e8c2b1"/>
      <path id="パス_58" data-name="パス 58" d="M59.178,78.551c0-.625.013-1.251,0-1.877-.01-.355.109-.511.484-.5.75.019,1.5.024,2.252,0,.428-.014.478.2.478.551s-.07.531-.466.507c-.452-.027-.908.007-1.361-.008-.329-.012-.334.187-.336.425s.033.395.325.387c.469-.013.939.013,1.408-.006s.411.3.426.6c.017.333-.084.494-.448.476-.452-.022-.907.009-1.36-.008-.314-.012-.352.155-.353.409s.049.415.358.4c.469-.016.939.011,1.407-.007.414-.016.4.249.393.528s.046.55-.377.544c-.813-.012-1.627-.009-2.44,0-.288,0-.388-.132-.386-.4,0-.672,0-1.345,0-2.018Z" fill="#e8c2b1"/>
      <path id="パス_59" data-name="パス 59" d="M48.584,78.592c0-.673.013-1.346-.005-2.019-.012-.413.249-.394.526-.4s.521,0,.513.408c-.02.955.006,1.91-.012,2.864-.006.344.1.48.453.46.437-.026.877.009,1.314-.01.415-.019.4.245.392.525-.006.263.058.553-.37.547-.813-.012-1.627-.009-2.441,0-.294,0-.377-.14-.373-.406C48.589,79.907,48.584,79.249,48.584,78.592Z" fill="#e8c2b1"/>
      <path id="パス_60" data-name="パス 60" d="M52.453,78.6c0-.672.017-1.346-.006-2.018-.014-.409.23-.407.514-.406s.529-.008.524.4q-.021,2,0,3.99c.005.4-.228.407-.517.4s-.534.014-.521-.4C52.468,79.915,52.453,79.258,52.453,78.6Z" fill="#e8c2b1"/>
    </g>
  </g>
</svg>
