<svg xmlns="http://www.w3.org/2000/svg" width="1198" height="848" viewBox="0 0 1198 848">
  <g id="グループ_1038" data-name="グループ 1038" transform="translate(-361 -3795)">
    <g id="グループ_438" data-name="グループ 438" transform="translate(-1 -2745)">
      <path id="パス_132" data-name="パス 132" d="M6,0H245.1a6,6,0,0,1,6,6V844H0V6A6,6,0,0,1,6,0Z" transform="translate(625 6540)" fill="#e8c2b1"/>
      <path id="長方形_1729" data-name="長方形 1729" d="M6,0H212.057a6,6,0,0,1,6,6V817.112a0,0,0,0,1,0,0H0a0,0,0,0,1,0,0V6A6,6,0,0,1,6,0Z" transform="translate(883.198 6566.889)" fill="#999"/>
      <path id="長方形_1730" data-name="長方形 1730" d="M6,0H212.057a6,6,0,0,1,6,6V817.112a0,0,0,0,1,0,0H0a0,0,0,0,1,0,0V6A6,6,0,0,1,6,0Z" transform="translate(1115.335 6566.889)" fill="#999"/>
      <path id="長方形_1731" data-name="長方形 1731" d="M6,0H212.057a6,6,0,0,1,6,6V817.112a0,0,0,0,1,0,0H0a0,0,0,0,1,0,0V6A6,6,0,0,1,6,0Z" transform="translate(1340.913 6566.889)" fill="#999"/>
      <rect id="長方形_1732" data-name="長方形 1732" width="1197" height="95" transform="translate(363 6631)" fill="#f2f2f2"/>
      <rect id="長方形_1733" data-name="長方形 1733" width="1197" height="95" transform="translate(363 6726)" fill="#fbfbfb"/>
      <rect id="長方形_1734" data-name="長方形 1734" width="1197" height="95" transform="translate(363 6820)" fill="#f2f2f2"/>
      <rect id="長方形_1735" data-name="長方形 1735" width="1197" height="95" transform="translate(362 7011)" fill="#f2f2f2"/>
      <rect id="長方形_1736" data-name="長方形 1736" width="1197" height="95" transform="translate(363 6915)" fill="#fbfbfb"/>
      <rect id="長方形_1737" data-name="長方形 1737" width="1197" height="95" transform="translate(363 7200)" fill="#f2f2f2"/>
      <rect id="長方形_1738" data-name="長方形 1738" width="1197" height="95" transform="translate(363 7105)" fill="#fbfbfb"/>
      <rect id="長方形_1739" data-name="長方形 1739" width="1197" height="92" transform="translate(363 7295)" fill="#fbfbfb"/>
      <line id="線_31" data-name="線 31" y2="755.5" transform="translate(1108.999 6631.5)" fill="none" stroke="#d8d8d8" stroke-miterlimit="10" stroke-width="1"/>
      <line id="線_32" data-name="線 32" y2="755.5" transform="translate(1337.13 6631.5)" fill="none" stroke="#d8d8d8" stroke-miterlimit="10" stroke-width="1"/>
      <line id="線_33" data-name="線 33" x1="1195.843" transform="translate(363.771 6726.25)" fill="none" stroke="#d8d8d8" stroke-miterlimit="10" stroke-width="1"/>
      <line id="線_34" data-name="線 34" x1="1195.843" transform="translate(363.771 6820.25)" fill="none" stroke="#d8d8d8" stroke-miterlimit="10" stroke-width="1"/>
      <line id="線_35" data-name="線 35" x1="1195.843" transform="translate(363.771 6915.25)" fill="none" stroke="#d8d8d8" stroke-miterlimit="10" stroke-width="1"/>
      <line id="線_36" data-name="線 36" x1="1195.843" transform="translate(363.771 7010.25)" fill="none" stroke="#d8d8d8" stroke-miterlimit="10" stroke-width="1"/>
      <line id="線_37" data-name="線 37" x1="1195.843" transform="translate(363.771 7105.25)" fill="none" stroke="#d8d8d8" stroke-miterlimit="10" stroke-width="1"/>
      <line id="線_38" data-name="線 38" x1="1195.843" transform="translate(363.771 7201.25)" fill="none" stroke="#d8d8d8" stroke-miterlimit="10" stroke-width="1"/>
      <line id="線_39" data-name="線 39" x1="1195.843" transform="translate(363.771 7294.25)" fill="none" stroke="#d8d8d8" stroke-miterlimit="10" stroke-width="1"/>
      <line id="線_40" data-name="線 40" x1="1195.843" transform="translate(363.771 7387.25)" fill="none" stroke="#d8d8d8" stroke-miterlimit="10" stroke-width="1"/>
      <path id="パス_133" data-name="パス 133" d="M0,0H248V758H0Z" transform="translate(626.43 6628.5)" fill="none" stroke="#e8c2b1" stroke-width="3"/>
      <text id="価格" transform="translate(384.596 6688.037)" fill="#505050" font-size="18" font-family="HiraginoSans-W3, Hiragino Sans"><tspan x="0" y="0">価格</tspan></text>
      <text id="A社" transform="translate(975.378 6607.037)" fill="#fff" font-size="18" font-family="Helvetica"><tspan x="0" y="0">A</tspan><tspan y="0" font-family="HiraginoSans-W3, Hiragino Sans">社</tspan></text>
      <text id="B社" transform="translate(1207.111 6607.037)" fill="#fff" font-size="18" font-family="Helvetica"><tspan x="0" y="0">B</tspan><tspan y="0" font-family="HiraginoSans-W3, Hiragino Sans">社</tspan></text>
      <text id="C社" transform="translate(1432.877 6607.037)" fill="#fff" font-size="18" font-family="Helvetica"><tspan x="0" y="0">C</tspan><tspan y="0" font-family="HiraginoSans-W3, Hiragino Sans">社</tspan></text>
      <text id="安全性" transform="translate(384.596 6780.037)" fill="#505050" font-size="18" font-family="HiraginoSans-W3, Hiragino Sans"><tspan x="0" y="0">安全性</tspan></text>
      <text id="アクセス" transform="translate(384.596 6878.037)" fill="#505050" font-size="18" font-family="HiraginoSans-W3, Hiragino Sans"><tspan x="0" y="0">アクセス</tspan></text>
      <text id="_" data-name="◯◯◯◯" transform="translate(384.596 6971.037)" fill="#505050" font-size="18" font-family="HiraginoSans-W3, Hiragino Sans"><tspan x="0" y="0">◯◯◯◯</tspan></text>
      <text id="_2" data-name="◯◯◯◯" transform="translate(384.596 7066.037)" fill="#505050" font-size="18" font-family="HiraginoSans-W3, Hiragino Sans"><tspan x="0" y="0">◯◯◯◯</tspan></text>
      <text id="_3" data-name="◯◯◯◯" transform="translate(384.596 7162.037)" fill="#505050" font-size="18" font-family="HiraginoSans-W3, Hiragino Sans"><tspan x="0" y="0">◯◯◯◯</tspan></text>
      <text id="_4" data-name="◯◯◯◯" transform="translate(384.596 7255.037)" fill="#505050" font-size="18" font-family="HiraginoSans-W3, Hiragino Sans"><tspan x="0" y="0">◯◯◯◯</tspan></text>
      <text id="_5" data-name="◯◯◯◯" transform="translate(384.596 7352.037)" fill="#505050" font-size="18" font-family="HiraginoSans-W3, Hiragino Sans"><tspan x="0" y="0">◯◯◯◯</tspan></text>
      <g id="グループ_434" data-name="グループ 434">
        <path id="パス_100" data-name="パス 100" d="M750.1,6789.654a16,16,0,1,1,16-16A16.018,16.018,0,0,1,750.1,6789.654Zm0-29.091a13.091,13.091,0,1,0,13.091,13.091A13.106,13.106,0,0,0,750.1,6760.563Z" fill="#d83503"/>
        <path id="パス_101" data-name="パス 101" d="M750.1,6780.927a7.272,7.272,0,1,1,7.273-7.273A7.281,7.281,0,0,1,750.1,6780.927Zm0-11.636a4.364,4.364,0,1,0,4.364,4.363A4.368,4.368,0,0,0,750.1,6769.291Z" fill="#d83503"/>
      </g>
      <g id="グループ_435" data-name="グループ 435">
        <path id="パス_102" data-name="パス 102" d="M750.1,7072.654a16,16,0,1,1,16-16A16.018,16.018,0,0,1,750.1,7072.654Zm0-29.091a13.091,13.091,0,1,0,13.091,13.091A13.106,13.106,0,0,0,750.1,7043.563Z" fill="#d83503"/>
        <path id="パス_103" data-name="パス 103" d="M750.1,7063.927a7.272,7.272,0,1,1,7.273-7.273A7.281,7.281,0,0,1,750.1,7063.927Zm0-11.636a4.364,4.364,0,1,0,4.364,4.363A4.368,4.368,0,0,0,750.1,7052.291Z" fill="#d83503"/>
      </g>
      <g id="グループ_436" data-name="グループ 436">
        <path id="パス_104" data-name="パス 104" d="M750.1,7171.654a16,16,0,1,1,16-16A16.018,16.018,0,0,1,750.1,7171.654Zm0-29.091a13.091,13.091,0,1,0,13.091,13.091A13.106,13.106,0,0,0,750.1,7142.563Z" fill="#d83503"/>
        <path id="パス_105" data-name="パス 105" d="M750.1,7162.927a7.272,7.272,0,1,1,7.273-7.273A7.281,7.281,0,0,1,750.1,7162.927Zm0-11.636a4.364,4.364,0,1,0,4.364,4.363A4.368,4.368,0,0,0,750.1,7151.291Z" fill="#d83503"/>
      </g>
      <g id="グループ_437" data-name="グループ 437">
        <path id="パス_106" data-name="パス 106" d="M750.1,7264.654a16,16,0,1,1,16-16A16.018,16.018,0,0,1,750.1,7264.654Zm0-29.091a13.091,13.091,0,1,0,13.091,13.091A13.106,13.106,0,0,0,750.1,7235.563Z" fill="#d83503"/>
        <path id="パス_107" data-name="パス 107" d="M750.1,7255.927a7.272,7.272,0,1,1,7.273-7.273A7.281,7.281,0,0,1,750.1,7255.927Zm0-11.636a4.364,4.364,0,1,0,4.364,4.363A4.368,4.368,0,0,0,750.1,7244.291Z" fill="#d83503"/>
      </g>
      <path id="パス_108" data-name="パス 108" d="M767.1,6976.223h-34l17-28.334Zm-28.422-3.158H761.52L750.1,6954.028Z" fill="#1a1a1a"/>
      <path id="パス_109" data-name="パス 109" d="M1241.363,6881.223h-34l17-28.334Zm-28.423-3.158h22.846l-11.423-19.037Z" fill="#1a1a1a"/>
      <path id="パス_110" data-name="パス 110" d="M1009.226,7073.223h-34l17-28.334Zm-28.423-3.158h22.845l-11.422-19.037Z" fill="#1a1a1a"/>
      <path id="パス_111" data-name="パス 111" d="M1466.941,6881.223h-34l17-28.334Zm-28.422-3.158h22.845l-11.423-19.037Z" fill="#1a1a1a"/>
      <path id="パス_112" data-name="パス 112" d="M1466.941,7070.223h-34l17-28.334Zm-28.422-3.158h22.845l-11.423-19.037Z" fill="#1a1a1a"/>
      <path id="パス_113" data-name="パス 113" d="M1009.226,7351.223h-34l17-28.334Zm-28.423-3.158h22.845l-11.422-19.037Z" fill="#1a1a1a"/>
      <path id="パス_114" data-name="パス 114" d="M1241.363,7351.223h-34l17-28.334Zm-28.423-3.158h22.846l-11.423-19.037Z" fill="#1a1a1a"/>
      <path id="パス_115" data-name="パス 115" d="M750.1,6881.654a15,15,0,1,1,15-15A15.017,15.017,0,0,1,750.1,6881.654Zm0-26.666a11.667,11.667,0,1,0,11.667,11.666A11.679,11.679,0,0,0,750.1,6854.988Z" fill="#d83503"/>
      <path id="パス_116" data-name="パス 116" d="M992.226,6892.654a15,15,0,1,1,15-15A15.017,15.017,0,0,1,992.226,6892.654Zm0-26.666a11.667,11.667,0,1,0,11.666,11.666A11.68,11.68,0,0,0,992.226,6865.988Z" fill="#d83503"/>
      <path id="パス_117" data-name="パス 117" d="M1224.363,6788.654a15,15,0,1,1,15-15A15.017,15.017,0,0,1,1224.363,6788.654Zm0-26.666a11.667,11.667,0,1,0,11.667,11.666A11.68,11.68,0,0,0,1224.363,6761.988Z" fill="#d83503"/>
      <path id="パス_118" data-name="パス 118" d="M992.226,6788.654a15,15,0,1,1,15-15A15.017,15.017,0,0,1,992.226,6788.654Zm0-26.666a11.667,11.667,0,1,0,11.666,11.666A11.68,11.68,0,0,0,992.226,6761.988Z" fill="#d83503"/>
      <path id="パス_119" data-name="パス 119" d="M1449.941,6788.654a15,15,0,1,1,15-15A15.017,15.017,0,0,1,1449.941,6788.654Zm0-26.666a11.667,11.667,0,1,0,11.667,11.666A11.68,11.68,0,0,0,1449.941,6761.988Z" fill="#d83503"/>
      <path id="パス_120" data-name="パス 120" d="M992.226,7170.654a15,15,0,1,1,15-15A15.017,15.017,0,0,1,992.226,7170.654Zm0-26.666a11.667,11.667,0,1,0,11.666,11.666A11.68,11.68,0,0,0,992.226,7143.988Z" fill="#d83503"/>
      <path id="パス_121" data-name="パス 121" d="M992.226,7263.654a15,15,0,1,1,15-15A15.017,15.017,0,0,1,992.226,7263.654Zm0-26.666a11.667,11.667,0,1,0,11.666,11.666A11.68,11.68,0,0,0,992.226,7236.988Z" fill="#d83503"/>
      <path id="パス_122" data-name="パス 122" d="M1224.363,7076.654a15,15,0,1,1,15-15A15.017,15.017,0,0,1,1224.363,7076.654Zm0-26.666a11.667,11.667,0,1,0,11.667,11.666A11.68,11.68,0,0,0,1224.363,7049.988Z" fill="#d83503"/>
      <path id="パス_123" data-name="パス 123" d="M1224.363,7169.654a15,15,0,1,1,15-15A15.017,15.017,0,0,1,1224.363,7169.654Zm0-26.666a11.667,11.667,0,1,0,11.667,11.666A11.68,11.68,0,0,0,1224.363,7142.988Z" fill="#d83503"/>
      <path id="パス_124" data-name="パス 124" d="M1449.941,7169.654a15,15,0,1,1,15-15A15.017,15.017,0,0,1,1449.941,7169.654Zm0-26.666a11.667,11.667,0,1,0,11.667,11.666A11.68,11.68,0,0,0,1449.941,7142.988Z" fill="#d83503"/>
      <path id="パス_125" data-name="パス 125" d="M1449.941,7262.654a15,15,0,1,1,15-15A15.017,15.017,0,0,1,1449.941,7262.654Zm0-26.666a11.667,11.667,0,1,0,11.667,11.666A11.68,11.68,0,0,0,1449.941,7235.988Z" fill="#d83503"/>
      <path id="パス_126" data-name="パス 126" d="M1224.363,6979.654a15,15,0,1,1,15-15A15.017,15.017,0,0,1,1224.363,6979.654Zm0-26.666a11.667,11.667,0,1,0,11.667,11.666A11.68,11.68,0,0,0,1224.363,6952.988Z" fill="#d83503"/>
      <path id="パス_127" data-name="パス 127" d="M1449.941,6979.654a15,15,0,1,1,15-15A15.017,15.017,0,0,1,1449.941,6979.654Zm0-26.666a11.667,11.667,0,1,0,11.667,11.666A11.68,11.68,0,0,0,1449.941,6952.988Z" fill="#d83503"/>
      <path id="パス_128" data-name="パス 128" d="M750.1,7356.654a15,15,0,1,1,15-15A15.017,15.017,0,0,1,750.1,7356.654Zm0-26.666a11.667,11.667,0,1,0,11.667,11.666A11.679,11.679,0,0,0,750.1,7329.988Z" fill="#d83503"/>
      <path id="パス_129" data-name="パス 129" d="M1460.341,7362.654l-10.4-10.4-10.4,10.4-2.6-2.6,10.4-10.4-10.4-10.4,2.6-2.6,10.4,10.4,10.4-10.4,2.6,2.6-10.4,10.4,10.4,10.4Z" fill="#1a1a1a"/>
      <path id="パス_130" data-name="パス 130" d="M1234.763,7261.654l-10.4-10.4-10.4,10.4-2.6-2.6,10.4-10.4-10.4-10.4,2.6-2.6,10.4,10.4,10.4-10.4,2.6,2.6-10.4,10.4,10.4,10.4Z" fill="#1a1a1a"/>
      <path id="パス_131" data-name="パス 131" d="M1002.626,6976.654l-10.4-10.4-10.4,10.4-2.6-2.6,10.4-10.4-10.4-10.4,2.6-2.6,10.4,10.4,10.4-10.4,2.6,2.6-10.4,10.4,10.4,10.4Z" fill="#1a1a1a"/>
      <text id="〇〇〇円" transform="translate(695.098 6696.926)" fill="#505050" font-size="27.5" font-family="HiraginoSans-W3, Hiragino Sans"><tspan x="0" y="0">〇〇〇円</tspan></text>
      <text id="〇〇〇円-2" data-name="〇〇〇円" transform="translate(937.226 6696.926)" fill="#505050" font-size="27.5" font-family="HiraginoSans-W3, Hiragino Sans"><tspan x="0" y="0">〇〇〇円</tspan></text>
      <text id="〇〇〇円-3" data-name="〇〇〇円" transform="translate(1169.363 6696.926)" fill="#505050" font-size="27.5" font-family="HiraginoSans-W3, Hiragino Sans"><tspan x="0" y="0">〇〇〇円</tspan></text>
      <text id="〇〇〇円-4" data-name="〇〇〇円" transform="translate(1394.94 6696.926)" fill="#505050" font-size="27.5" font-family="HiraginoSans-W3, Hiragino Sans"><tspan x="0" y="0">〇〇〇円</tspan></text>
    </g>
    <g id="Layer_1" data-name="Layer 1" transform="translate(-89.236 3189.411)">
      <path id="パス_42" data-name="パス 42" d="M1188.652,2177.18c0-1.078-.02-1.242-.666-1.293l-.256-.021c-.062-.041-.041-.226.02-.257.574.021.923.031,1.334.031s.749-.01,1.262-.031c.062.031.082.216.021.257l-.247.021c-.605.051-.626.216-.626,1.293v3.572c0,.646.032.914.216,1.109.113.113.308.236,1.119.236.872,0,1.088-.041,1.252-.133a2.194,2.194,0,0,0,.677-1.016c.062-.051.256-.01.256.063a8.226,8.226,0,0,1-.431,1.437c-.523-.02-1.5-.032-2.555-.032h-.946c-.431,0-.761.01-1.334.032a.2.2,0,0,1-.02-.257l.308-.031c.6-.062.615-.205.615-1.283Z" transform="translate(-363.521 -1501.264)" fill="#fff"/>
      <path id="パス_43" data-name="パス 43" d="M1382.042,2191.7c0-.4,0-.452-.277-.637l-.092-.061a.14.14,0,0,1,.01-.185,7.057,7.057,0,0,0,1.057-.5.1.1,0,0,1,.1.062c-.021.359-.041.852-.041,1.272v1.847c0,.739.021.842.39.893l.215.032a.18.18,0,0,1-.021.257c-.308-.021-.605-.032-.965-.032s-.677.01-.965.032a.18.18,0,0,1-.021-.257l.216-.032c.38-.051.39-.154.39-.893Zm.852-2.925a.534.534,0,0,1-1.068.021.533.533,0,0,1,.555-.554A.513.513,0,0,1,1382.894,2188.774Z" transform="translate(-551.082 -1513.494)" fill="#fff"/>
      <path id="パス_44" data-name="パス 44" d="M1483.58,2260.295a2.1,2.1,0,0,1-2.166,2.207,2.029,2.029,0,0,1-2.1-2.114,2.157,2.157,0,0,1,2.187-2.217A2.051,2.051,0,0,1,1483.58,2260.295Zm-2.207-1.817c-.677,0-1.18.647-1.18,1.775,0,.934.421,1.939,1.324,1.939s1.181-.944,1.181-1.735c0-.872-.35-1.98-1.325-1.98Z" transform="translate(-645.896 -1581.207)" fill="#fff"/>
      <path id="パス_45" data-name="パス 45" d="M1651.736,2255.024c0-.4,0-.452-.277-.636l-.093-.062a.14.14,0,0,1,.01-.185,5.574,5.574,0,0,0,1.026-.5.12.12,0,0,1,.113.072c-.02.236-.02.39-.02.482a.107.107,0,0,0,.113.113,2.819,2.819,0,0,1,1.437-.523,1.139,1.139,0,0,1,1.2,1.273v1.765c0,.739.021.842.39.893l.226.031a.18.18,0,0,1-.021.257c-.308-.021-.605-.032-.965-.032s-.677.011-.954.032a.18.18,0,0,1-.021-.257l.2-.031c.38-.062.39-.154.39-.893v-1.529a.89.89,0,0,0-.965-1.016,1.119,1.119,0,0,0-.873.359.864.864,0,0,0-.154.616v1.57c0,.739.02.831.39.893l.185.031a.18.18,0,0,1-.021.257c-.277-.021-.575-.032-.934-.032s-.677.011-.965.032a.18.18,0,0,1-.021-.257l.216-.031c.38-.051.39-.154.39-.893Z" transform="translate(-812.226 -1576.819)" fill="#fff"/>
      <path id="パス_46" data-name="パス 46" d="M855.359,625.2H812.781a.511.511,0,0,0-.511.511v42.578a.511.511,0,0,0,.511.511h42.578a.511.511,0,0,0,.511-.511V625.711A.511.511,0,0,0,855.359,625.2Zm-2.885,1.022a20.426,20.426,0,0,1-3.648,9.858c-.713.461-1.463.892-2.243,1.312l-.023-.027a22.6,22.6,0,0,0,3.529-11.142Zm-3.408,0a21.585,21.585,0,0,1-3.222,10.37,14.674,14.674,0,0,0-1.549-1.361,27,27,0,0,0,2.083-9.009Zm-14.436,0h2.9a17.446,17.446,0,0,1-.412,3.88,1.3,1.3,0,0,0-.545-.717c-.285-.138-1.156.266-1.691.545q-.462.242-.866.5a30.689,30.689,0,0,0,.616-4.208Zm-4.926,0a27.718,27.718,0,0,1-1.516,8.412,21.158,21.158,0,0,0-3.165,1.521l.089-.274c1.037-3.206,1.94-6,1.705-9.659Zm-7.159,0h3.247c.236,3.5-.643,6.22-1.653,9.344-.156.481-.313.968-.47,1.467q-.324.231-.634.471c-.285-1.117-.58-2.213-.907-3.27a14.227,14.227,0,0,0,.415-8.012Zm-1.051,0a12.321,12.321,0,0,1,.049,6.259,15.853,15.853,0,0,0-3.8-6.259Zm-8.2,0h2.857c3.12,2.318,4.513,6.282,5.676,10.682a32.485,32.485,0,0,0-8.533-8.146Zm0,3.754a30.681,30.681,0,0,1,8.445,8.644,17.622,17.622,0,0,0-1.505,1.613c-.376-.42-.735-.84-1.091-1.258a21.586,21.586,0,0,0-5.848-5.243Zm0,4.949a21.3,21.3,0,0,1,5.072,4.714c.4.469.805.943,1.232,1.415a18.556,18.556,0,0,0-1.211,1.895c-.363-.36-.718-.717-1.062-1.063a27.61,27.61,0,0,0-4.03-3.648Zm0,4.559a42.362,42.362,0,0,1,3.306,3.123c.417.419.849.853,1.291,1.291q-.407.834-.735,1.694a22.511,22.511,0,0,0-3.862-3.317Zm0,4.023a26.18,26.18,0,0,1,3.482,3.16,25.1,25.1,0,0,0-.753,2.9,35.981,35.981,0,0,1-2.73-4.695Zm0,3.588a35.388,35.388,0,0,0,2.486,3.9c-.138.951-.229,1.9-.281,2.824a14.53,14.53,0,0,1-2.205-3.7Zm0,5.386a18.721,18.721,0,0,0,2.153,2.9c-.008.714,0,1.412.032,2.089a8.215,8.215,0,0,1-2.185-1.569Zm0,4.958a14.608,14.608,0,0,0,4.947,3.254c-1.826.471-3.538.6-4.948-.462Zm0,4.007a5.275,5.275,0,0,0,2.583.618,13.64,13.64,0,0,0,3.962-.771c.7.237,1.411.449,2.124.648l-.328.137c-2.792,1.167-5.674,2.371-8.339,2.034Zm0,6.334v-2.636a8.6,8.6,0,0,0,.946.052c2.59,0,5.225-1.1,7.787-2.174.539-.225,1.049-.438,1.558-.641l.1.027c.927.246,1.863.495,2.789.777a49.2,49.2,0,0,0-6.354,2.62c-2.143,1-4.166,1.947-5.191,1.976Zm19.671,0H818.257c.714-.311,1.486-.672,2.3-1.05a35.581,35.581,0,0,1,7.728-2.938,13.422,13.422,0,0,1,4.191,2.248c.774.814.664,1.26.492,1.741Zm21.885,0H834.7a10.394,10.394,0,0,1,2.916-3.275,47.007,47.007,0,0,1,8.469.883,40.172,40.172,0,0,0,7.294.784c.471,0,.959-.011,1.465-.035ZM837.1,663.6a.518.518,0,0,0-.056.056q-.31.232-.6.475a28.567,28.567,0,0,1,.4-8.184,12.983,12.983,0,0,1,3.561,2.578A37.62,37.62,0,0,1,837.1,663.6Zm4.374-4.879a57.256,57.256,0,0,1,3.489-5.542,5.415,5.415,0,0,0,.622.166,4.929,4.929,0,0,0,.848.1,3.769,3.769,0,0,0,1.609-.276l.07-.032c-.885,1.2-1.654,2.384-2.364,3.476a33.835,33.835,0,0,1-2.916,4.063,34.3,34.3,0,0,0-3.455,1.529c.727-1.107,1.4-2.276,2.1-3.488Zm13.377,6.389a36.018,36.018,0,0,1-8.585-.733,51.4,51.4,0,0,0-7.136-.865c.558-.322,1.141-.619,1.745-.9a38.089,38.089,0,0,1,8.753-.159,45.4,45.4,0,0,0,5.223.1Zm0-3.582a43.408,43.408,0,0,1-5.167-.1c-1.8-.1-3.735-.2-5.537-.161q.544-.2,1.095-.409c.883-.328,1.773-.659,2.657-1.012a.207.207,0,0,0,.037-.005,15.228,15.228,0,0,1,2.8-.08,16.128,16.128,0,0,0,4.116-.229Zm0-3.054a13.858,13.858,0,0,1-4.089.27l-.31-.008a20.522,20.522,0,0,0,4.4-2.79Zm0-3.9a17.644,17.644,0,0,1-3.929,2.776c.479-.671.893-1.358,1.3-2.033a14.777,14.777,0,0,1,2.631-3.524Zm0-4.1a13.9,13.9,0,0,0-3.505,4.32,16.233,16.233,0,0,1-2.706,3.647c-1.236.533-2.5,1-3.756,1.468l-.168.063c.634-.86,1.251-1.81,1.89-2.795,2.024-3.113,4.3-6.616,8.245-9.394Zm0-3.927a25.033,25.033,0,0,0-5.462,4.963c.028-.177.044-.343.058-.495a2.719,2.719,0,0,1,.166-.824c.095-.211-.07-.185-.142-.078a2.625,2.625,0,0,0-.334.849,3.142,3.142,0,0,1-.366,1,1.157,1.157,0,0,1-.173.2c-.019.018-.04.041-.057.055l-.05.041a.625.625,0,0,1-.055.042l-.059.042a2.216,2.216,0,0,1-.552.262,3.382,3.382,0,0,1-1.348.127,4.937,4.937,0,0,1-.722-.127,5.623,5.623,0,0,1-.721-.237c-.12-.045-.237-.1-.355-.154s-.234-.114-.349-.177-.229-.129-.343-.195-.225-.139-.333-.215l-.165-.112c-.055-.038-.108-.078-.162-.117-.109-.076-.212-.16-.317-.242s-.2-.17-.308-.254l-.163-.135c-.058-.046-.116-.1-.174-.137a6.21,6.21,0,0,0-.717-.479,5.14,5.14,0,0,0-.771-.364,3.864,3.864,0,0,0-1.612-.254,3.158,3.158,0,0,0-.751.147A2.919,2.919,0,0,0,837,650.826a3.182,3.182,0,0,0-.4.821c-.077.238.04.275.152.063a3.341,3.341,0,0,1,.494-.687,2.788,2.788,0,0,1,.851-.624,2.637,2.637,0,0,1,1.182-.247,3.465,3.465,0,0,1,1.321.311,5.776,5.776,0,0,1,1.268.792c.051.04.1.081.146.122l.151.132c.108.1.216.188.329.278s.225.181.342.266c.059.043.116.087.176.129l.18.123c.12.082.246.157.37.233s.254.147.383.213l.041.021a56.582,56.582,0,0,0-3.162,5.02,9.857,9.857,0,0,0-3.932-2.085,20.188,20.188,0,0,1,.907-3.084.142.142,0,0,0-.25-.132,10.252,10.252,0,0,0-1.35,3.071.074.074,0,0,0-.027.042.043.043,0,0,0,.006.036,21.2,21.2,0,0,0-.038,8.749c-.1.1-.207.19-.307.285l-.032.028h0c-.016.016-.032.032-.049.047a11.018,11.018,0,0,0-1.895,2.441c-.051-.649.129-.9-.432-1.512-.926-1.014-5.8-3.1-6.072-3.168a101.017,101.017,0,0,1-11.242-4.695c.237-14.645,8.5-20.9,12.246-22.984a10.794,10.794,0,0,0,.983-.457,28.115,28.115,0,0,0,1.381-8.154H833.6a30.465,30.465,0,0,1-.872,5.175,7.469,7.469,0,0,0-2.565,6.28.208.208,0,0,0,.216.185c.576-.032,2.251-.364,2.229-3.221-.02-2.591,2.585-3.76,3.308-4.035a.209.209,0,0,1,.265.11,8.125,8.125,0,0,1,.561,3.852.208.208,0,0,0,.408.074,7.6,7.6,0,0,0,.3-1.8,21.673,21.673,0,0,0,1.094-6.622h3.04a17.034,17.034,0,0,1-1.386,7.093,5.061,5.061,0,0,1,1,.245,18.159,18.159,0,0,0,1.406-7.337h2.746a25.944,25.944,0,0,1-1.914,8.409,12.988,12.988,0,0,0-1.493-.832.16.16,0,0,0-.146.285,13.628,13.628,0,0,1,4.077,3.522,19.487,19.487,0,0,0,3.836,4.145,20.22,20.22,0,0,1,2.437,2.057.16.16,0,0,1-.109.271c-.543.028-.818.523-1.153.527-.41.005-.534-.836-.827-.5-.478.547.734,1.289,1.184,1.762a.643.643,0,0,1,.133.672.16.16,0,0,0,.241.183,4.441,4.441,0,0,0,.821-.74c.748-.51,1.549-1.012,2.409-1.5Zm0-3.242q-.792.439-1.522.888a1.363,1.363,0,0,0-.052-.534,9,9,0,0,0,1.575-.376Zm0-1.124a7.9,7.9,0,0,1-2.327.551c-.587-.515-1.448-1.122-2.382-1.854a25.218,25.218,0,0,0,4.709-1.046Zm0-3.43a25.637,25.637,0,0,1-5.8,1.23,17.388,17.388,0,0,1-1.6-1.561c3.182-.285,5.539-.784,7.4-2.085Zm0-3.71c-1.477,1.276-3.379,1.861-5.94,2.194q.273-.168.54-.342l.021-.014a20.3,20.3,0,0,0,1.674-1.21,13.925,13.925,0,0,0,3.7-4.444Zm0-6.472a12.8,12.8,0,0,1-3.767,5.81,21.838,21.838,0,0,0,2.418-8.158h1.349Z" transform="translate(0 0)" fill="#fff"/>
      <path id="パス_47" data-name="パス 47" d="M1746.921,1015.159a1.1,1.1,0,0,0,.056-1.351c.089-.172.485-.349.485-.349-.254,0-2.821.548-2.821.548l2.431,1.576A1.676,1.676,0,0,0,1746.921,1015.159Z" transform="translate(-902.815 -375.953)" fill="#fff"/>
      <path id="パス_48" data-name="パス 48" d="M1820.459,1322.813c-.29-.077-1.157,2.259-3.626,1.572s-3.226.1-3.477.729c-.138.344-.019.838,1.244.132,1.335-.746,2.561.141,3.745-.3C1819.966,1324.345,1820.75,1322.89,1820.459,1322.813Z" transform="translate(-969.309 -675.497)" fill="#fff"/>
      <path id="パス_49" data-name="パス 49" d="M1395.3,1421.725c-3.614,1.645-4.78,5.8-5.131,8.907a.126.126,0,0,0,.25.036c.936-5.139,3.523-7.665,5.008-8.726A.126.126,0,0,0,1395.3,1421.725Z" transform="translate(-559.581 -771.264)" fill="#fff"/>
    </g>
  </g>
</svg>
